<?xml version='1.0' encoding='utf-8'?>
<svg xmlns="http://www.w3.org/2000/svg" width="396pt" height="217pt" viewBox="0 0 396 217" version="1.1">
 <defs>
  <style type="text/css">*{stroke-linejoin: round; stroke-linecap: butt}</style>
 </defs>
 <g id="figure_1">
  <g id="patch_1">
   <path d="M 0 217  L 396 217  L 396 0  L 0 0  z " style="fill: #ffffff" />
  </g>
  <g id="axes_1">
   <g id="patch_2">
    <path d="M 6 3  L 64 3  Q 67 3 67 6  L 67 160  Q 67 163 64 163  L 6 163  Q 3 163 3 160  L 3 6  Q 3 3 6 3  z " clip-path="url(#p45930551c6)" style="fill: #ffffff; stroke: #244ea4; stroke-width: 0.8; stroke-linejoin: miter" />
   </g>
   <g id="patch_3">
    <path d="M 6 4  L 64 4  Q 66 4 66 6  L 66 23  Q 66 25 64 25  L 6 25  Q 4 25 4 23  L 4 6  Q 4 4 6 4  z " clip-path="url(#p45930551c6)" style="fill: #f2f5fc" />
   </g>
   <g id="patch_4">
    <path d="M 76 3  L 143 3  Q 146 3 146 6  L 146 160  Q 146 163 143 163  L 76 163  Q 73 163 73 160  L 73 6  Q 73 3 76 3  z " clip-path="url(#p45930551c6)" style="fill: #ffffff; stroke: #244ea4; stroke-width: 0.8; stroke-linejoin: miter" />
   </g>
   <g id="patch_5">
    <path d="M 76 4  L 143 4  Q 145 4 145 6  L 145 23  Q 145 25 143 25  L 76 25  Q 74 25 74 23  L 74 6  Q 74 4 76 4  z " clip-path="url(#p45930551c6)" style="fill: #f2f5fc" />
   </g>
   <g id="patch_6">
    <path d="M 155 3  L 221 3  Q 224 3 224 6  L 224 160  Q 224 163 221 163  L 155 163  Q 152 163 152 160  L 152 6  Q 152 3 155 3  z " clip-path="url(#p45930551c6)" style="fill: #ffffff; stroke: #247345; stroke-width: 0.8; stroke-linejoin: miter" />
   </g>
   <g id="patch_7">
    <path d="M 155 4  L 221 4  Q 223 4 223 6  L 223 23  Q 223 25 221 25  L 155 25  Q 153 25 153 23  L 153 6  Q 153 4 155 4  z " clip-path="url(#p45930551c6)" style="fill: #f4f9f2" />
   </g>
   <g id="patch_8">
    <path d="M 233 3  L 305 3  Q 308 3 308 6  L 308 160  Q 308 163 305 163  L 233 163  Q 230 163 230 160  L 230 6  Q 230 3 233 3  z " clip-path="url(#p45930551c6)" style="fill: #ffffff; stroke: #087f87; stroke-width: 0.8; stroke-linejoin: miter" />
   </g>
   <g id="patch_9">
    <path d="M 233 4  L 305 4  Q 307 4 307 6  L 307 23  Q 307 25 305 25  L 233 25  Q 231 25 231 23  L 231 6  Q 231 4 233 4  z " clip-path="url(#p45930551c6)" style="fill: #f0f9f9" />
   </g>
   <g id="patch_10">
    <path d="M 317 3  L 390 3  Q 393 3 393 6  L 393 160  Q 393 163 390 163  L 317 163  Q 314 163 314 160  L 314 6  Q 314 3 317 3  z " clip-path="url(#p45930551c6)" style="fill: #ffffff; stroke: #40347c; stroke-width: 0.8; stroke-linejoin: miter" />
   </g>
   <g id="patch_11">
    <path d="M 317 4  L 390 4  Q 392 4 392 6  L 392 23  Q 392 25 390 25  L 317 25  Q 315 25 315 23  L 315 6  Q 315 4 317 4  z " clip-path="url(#p45930551c6)" style="fill: #f5f3fa" />
   </g>
   <g id="patch_12">
    <path d="M 67 89  Q 70 89 72.105573 89  " clip-path="url(#p45930551c6)" style="fill: none; stroke: #223139; stroke-width: 0.8; stroke-linecap: round" />
    <path d="M 69.505573 87.7  L 72.105573 89  L 69.505573 90.3  z " clip-path="url(#p45930551c6)" style="fill: #223139; stroke: #223139; stroke-width: 0.8; stroke-linecap: round" />
   </g>
   <g id="patch_13">
    <path d="M 146 89  Q 149 89 151.105573 89  " clip-path="url(#p45930551c6)" style="fill: none; stroke: #223139; stroke-width: 0.8; stroke-linecap: round" />
    <path d="M 148.505573 87.7  L 151.105573 89  L 148.505573 90.3  z " clip-path="url(#p45930551c6)" style="fill: #223139; stroke: #223139; stroke-width: 0.8; stroke-linecap: round" />
   </g>
   <g id="patch_14">
    <path d="M 224 89  Q 227 89 229.105573 89  " clip-path="url(#p45930551c6)" style="fill: none; stroke: #223139; stroke-width: 0.8; stroke-linecap: round" />
    <path d="M 226.505573 87.7  L 229.105573 89  L 226.505573 90.3  z " clip-path="url(#p45930551c6)" style="fill: #223139; stroke: #223139; stroke-width: 0.8; stroke-linecap: round" />
   </g>
   <g id="patch_15">
    <path d="M 15 50  C 15.795609 50 16.55874 50.316099 17.12132 50.87868  C 17.683901 51.44126 18 52.204391 18 53  C 18 53.795609 17.683901 54.55874 17.12132 55.12132  C 16.55874 55.683901 15.795609 56 15 56  C 14.204391 56 13.44126 55.683901 12.87868 55.12132  C 12.316099 54.55874 12 53.795609 12 53  C 12 52.204391 12.316099 51.44126 12.87868 50.87868  C 13.44126 50.316099 14.204391 50 15 50  z " clip-path="url(#p45930551c6)" style="fill: #e4ecfa; stroke: #244ea4; stroke-width: 0.6; stroke-linejoin: miter" />
   </g>
   <g id="patch_16">
    <path d="M 18 53  Q 25 53 31.105573 53  " clip-path="url(#p45930551c6)" style="fill: none; stroke: #244ea4; stroke-width: 0.8; stroke-linecap: round" />
    <path d="M 28.505573 51.7  L 31.105573 53  L 28.505573 54.3  z " clip-path="url(#p45930551c6)" style="fill: #244ea4; stroke: #244ea4; stroke-width: 0.8; stroke-linecap: round" />
   </g>
   <g id="patch_17">
    <path d="M 35 50  C 35.795609 50 36.55874 50.316099 37.12132 50.87868  C 37.683901 51.44126 38 52.204391 38 53  C 38 53.795609 37.683901 54.55874 37.12132 55.12132  C 36.55874 55.683901 35.795609 56 35 56  C 34.204391 56 33.44126 55.683901 32.87868 55.12132  C 32.316099 54.55874 32 53.795609 32 53  C 32 52.204391 32.316099 51.44126 32.87868 50.87868  C 33.44126 50.316099 34.204391 50 35 50  z " clip-path="url(#p45930551c6)" style="fill: #e4ecfa; stroke: #244ea4; stroke-width: 0.6; stroke-linejoin: miter" />
   </g>
   <g id="patch_18">
    <path d="M 38 53  Q 45 53 51.105573 53  " clip-path="url(#p45930551c6)" style="fill: none; stroke: #244ea4; stroke-width: 0.8; stroke-linecap: round" />
    <path d="M 48.505573 51.7  L 51.105573 53  L 48.505573 54.3  z " clip-path="url(#p45930551c6)" style="fill: #244ea4; stroke: #244ea4; stroke-width: 0.8; stroke-linecap: round" />
   </g>
   <g id="patch_19">
    <path d="M 55 50  C 55.795609 50 56.55874 50.316099 57.12132 50.87868  C 57.683901 51.44126 58 52.204391 58 53  C 58 53.795609 57.683901 54.55874 57.12132 55.12132  C 56.55874 55.683901 55.795609 56 55 56  C 54.204391 56 53.44126 55.683901 52.87868 55.12132  C 52.316099 54.55874 52 53.795609 52 53  C 52 52.204391 52.316099 51.44126 52.87868 50.87868  C 53.44126 50.316099 54.204391 50 55 50  z " clip-path="url(#p45930551c6)" style="fill: #e4ecfa; stroke: #244ea4; stroke-width: 0.6; stroke-linejoin: miter" />
   </g>
   <g id="patch_20">
    <path d="M 12 80  L 58 80  Q 60 80 60 82  L 60 111  Q 60 113 58 113  L 12 113  Q 10 113 10 111  L 10 82  Q 10 80 12 80  z " clip-path="url(#p45930551c6)" style="fill: #f8fafe; stroke: #244ea4; stroke-width: 0.65; stroke-linejoin: miter" />
   </g>
   <g id="patch_21">
    <path d="M 86 58.5  C 86.530406 58.5 87.03916 58.710733 87.414214 59.085786  C 87.789267 59.46084 88 59.969594 88 60.5  C 88 61.030406 87.789267 61.53916 87.414214 61.914214  C 87.03916 62.289267 86.530406 62.5 86 62.5  C 85.469594 62.5 84.96084 62.289267 84.585786 61.914214  C 84.210733 61.53916 84 61.030406 84 60.5  C 84 59.969594 84.210733 59.46084 84.585786 59.085786  C 84.96084 58.710733 85.469594 58.5 86 58.5  z " clip-path="url(#p45930551c6)" style="fill: #ffffff; stroke: #244ea4; stroke-width: 0.6; stroke-linejoin: miter" />
   </g>
   <g id="patch_22">
    <path d="M 100.1 47  C 100.630406 47 101.13916 47.210733 101.514214 47.585786  C 101.889267 47.96084 102.1 48.469594 102.1 49  C 102.1 49.530406 101.889267 50.03916 101.514214 50.414214  C 101.13916 50.789267 100.630406 51 100.1 51  C 99.569594 51 99.06084 50.789267 98.685786 50.414214  C 98.310733 50.03916 98.1 49.530406 98.1 49  C 98.1 48.469594 98.310733 47.96084 98.685786 47.585786  C 99.06084 47.210733 99.569594 47 100.1 47  z " clip-path="url(#p45930551c6)" style="fill: #ffffff; stroke: #244ea4; stroke-width: 0.6; stroke-linejoin: miter" />
   </g>
   <g id="patch_23">
    <path d="M 117.49 47  C 118.020406 47 118.52916 47.210733 118.904214 47.585786  C 119.279267 47.96084 119.49 48.469594 119.49 49  C 119.49 49.530406 119.279267 50.03916 118.904214 50.414214  C 118.52916 50.789267 118.020406 51 117.49 51  C 116.959594 51 116.45084 50.789267 116.075786 50.414214  C 115.700733 50.03916 115.49 49.530406 115.49 49  C 115.49 48.469594 115.700733 47.96084 116.075786 47.585786  C 116.45084 47.210733 116.959594 47 117.49 47  z " clip-path="url(#p45930551c6)" style="fill: #ffffff; stroke: #244ea4; stroke-width: 0.6; stroke-linejoin: miter" />
   </g>
   <g id="patch_24">
    <path d="M 133 58.5  C 133.530406 58.5 134.03916 58.710733 134.414214 59.085786  C 134.789267 59.46084 135 59.969594 135 60.5  C 135 61.030406 134.789267 61.53916 134.414214 61.914214  C 134.03916 62.289267 133.530406 62.5 133 62.5  C 132.469594 62.5 131.96084 62.289267 131.585786 61.914214  C 131.210733 61.53916 131 61.030406 131 60.5  C 131 59.969594 131.210733 59.46084 131.585786 59.085786  C 131.96084 58.710733 132.469594 58.5 133 58.5  z " clip-path="url(#p45930551c6)" style="fill: #244ea4; stroke: #244ea4; stroke-width: 0.6; stroke-linejoin: miter" />
   </g>
   <g id="patch_25">
    <path d="M 117.49 70  C 118.020406 70 118.52916 70.210733 118.904214 70.585786  C 119.279267 70.96084 119.49 71.469594 119.49 72  C 119.49 72.530406 119.279267 73.03916 118.904214 73.414214  C 118.52916 73.789267 118.020406 74 117.49 74  C 116.959594 74 116.45084 73.789267 116.075786 73.414214  C 115.700733 73.03916 115.49 72.530406 115.49 72  C 115.49 71.469594 115.700733 70.96084 116.075786 70.585786  C 116.45084 70.210733 116.959594 70 117.49 70  z " clip-path="url(#p45930551c6)" style="fill: #ffffff; stroke: #244ea4; stroke-width: 0.6; stroke-linejoin: miter" />
   </g>
   <g id="patch_26">
    <path d="M 100.1 70  C 100.630406 70 101.13916 70.210733 101.514214 70.585786  C 101.889267 70.96084 102.1 71.469594 102.1 72  C 102.1 72.530406 101.889267 73.03916 101.514214 73.414214  C 101.13916 73.789267 100.630406 74 100.1 74  C 99.569594 74 99.06084 73.789267 98.685786 73.414214  C 98.310733 73.03916 98.1 72.530406 98.1 72  C 98.1 71.469594 98.310733 70.96084 98.685786 70.585786  C 99.06084 70.210733 99.569594 70 100.1 70  z " clip-path="url(#p45930551c6)" style="fill: #ffffff; stroke: #244ea4; stroke-width: 0.6; stroke-linejoin: miter" />
   </g>
   <g id="patch_27">
    <path d="M 82 99  L 137 99  Q 139 99 139 101  L 139 148  Q 139 150 137 150  L 82 150  Q 80 150 80 148  L 80 101  Q 80 99 82 99  z " clip-path="url(#p45930551c6)" style="fill: #f8fafe; stroke: #244ea4; stroke-width: 0.65; stroke-linejoin: miter" />
   </g>
   <g id="patch_28">
    <path d="M 165 108  C 165.530406 108 166.03916 108.210733 166.414214 108.585786  C 166.789267 108.96084 167 109.469594 167 110  C 167 110.530406 166.789267 111.03916 166.414214 111.414214  C 166.03916 111.789267 165.530406 112 165 112  C 164.469594 112 163.96084 111.789267 163.585786 111.414214  C 163.210733 111.03916 163 110.530406 163 110  C 163 109.469594 163.210733 108.96084 163.585786 108.585786  C 163.96084 108.210733 164.469594 108 165 108  z " clip-path="url(#p45930551c6)" style="fill: #ffffff; stroke: #bd3d3d; stroke-width: 0.6; stroke-linejoin: miter" />
   </g>
   <g id="patch_29">
    <path d="M 211 108  C 211.530406 108 212.03916 108.210733 212.414214 108.585786  C 212.789267 108.96084 213 109.469594 213 110  C 213 110.530406 212.789267 111.03916 212.414214 111.414214  C 212.03916 111.789267 211.530406 112 211 112  C 210.469594 112 209.96084 111.789267 209.585786 111.414214  C 209.210733 111.03916 209 110.530406 209 110  C 209 109.469594 209.210733 108.96084 209.585786 108.585786  C 209.96084 108.210733 210.469594 108 211 108  z " clip-path="url(#p45930551c6)" style="fill: #ffffff; stroke: #bd3d3d; stroke-width: 0.6; stroke-linejoin: miter" />
   </g>
   <g id="patch_30">
    <path d="M 241 93.5  C 241.530406 93.5 242.03916 93.710733 242.414214 94.085786  C 242.789267 94.46084 243 94.969594 243 95.5  C 243 96.030406 242.789267 96.53916 242.414214 96.914214  C 242.03916 97.289267 241.530406 97.5 241 97.5  C 240.469594 97.5 239.96084 97.289267 239.585786 96.914214  C 239.210733 96.53916 239 96.030406 239 95.5  C 239 94.969594 239.210733 94.46084 239.585786 94.085786  C 239.96084 93.710733 240.469594 93.5 241 93.5  z " clip-path="url(#p45930551c6)" style="fill: #ffffff; stroke: #087f87; stroke-width: 0.6; stroke-linejoin: miter" />
   </g>
   <g id="patch_31">
    <path d="M 257.5 80  C 258.030406 80 258.53916 80.210733 258.914214 80.585786  C 259.289267 80.96084 259.5 81.469594 259.5 82  C 259.5 82.530406 259.289267 83.03916 258.914214 83.414214  C 258.53916 83.789267 258.030406 84 257.5 84  C 256.969594 84 256.46084 83.789267 256.085786 83.414214  C 255.710733 83.03916 255.5 82.530406 255.5 82  C 255.5 81.469594 255.710733 80.96084 256.085786 80.585786  C 256.46084 80.210733 256.969594 80 257.5 80  z " clip-path="url(#p45930551c6)" style="fill: #ffffff; stroke: #087f87; stroke-width: 0.6; stroke-linejoin: miter" />
   </g>
   <g id="patch_32">
    <path d="M 277.85 80  C 278.380406 80 278.88916 80.210733 279.264214 80.585786  C 279.639267 80.96084 279.85 81.469594 279.85 82  C 279.85 82.530406 279.639267 83.03916 279.264214 83.414214  C 278.88916 83.789267 278.380406 84 277.85 84  C 277.319594 84 276.81084 83.789267 276.435786 83.414214  C 276.060733 83.03916 275.85 82.530406 275.85 82  C 275.85 81.469594 276.060733 80.96084 276.435786 80.585786  C 276.81084 80.210733 277.319594 80 277.85 80  z " clip-path="url(#p45930551c6)" style="fill: #ffffff; stroke: #087f87; stroke-width: 0.6; stroke-linejoin: miter" />
   </g>
   <g id="patch_33">
    <path d="M 296 93.5  C 296.530406 93.5 297.03916 93.710733 297.414214 94.085786  C 297.789267 94.46084 298 94.969594 298 95.5  C 298 96.030406 297.789267 96.53916 297.414214 96.914214  C 297.03916 97.289267 296.530406 97.5 296 97.5  C 295.469594 97.5 294.96084 97.289267 294.585786 96.914214  C 294.210733 96.53916 294 96.030406 294 95.5  C 294 94.969594 294.210733 94.46084 294.585786 94.085786  C 294.96084 93.710733 295.469594 93.5 296 93.5  z " clip-path="url(#p45930551c6)" style="fill: #087f87; stroke: #087f87; stroke-width: 0.6; stroke-linejoin: miter" />
   </g>
   <g id="patch_34">
    <path d="M 277.85 107  C 278.380406 107 278.88916 107.210733 279.264214 107.585786  C 279.639267 107.96084 279.85 108.469594 279.85 109  C 279.85 109.530406 279.639267 110.03916 279.264214 110.414214  C 278.88916 110.789267 278.380406 111 277.85 111  C 277.319594 111 276.81084 110.789267 276.435786 110.414214  C 276.060733 110.03916 275.85 109.530406 275.85 109  C 275.85 108.469594 276.060733 107.96084 276.435786 107.585786  C 276.81084 107.210733 277.319594 107 277.85 107  z " clip-path="url(#p45930551c6)" style="fill: #ffffff; stroke: #087f87; stroke-width: 0.6; stroke-linejoin: miter" />
   </g>
   <g id="patch_35">
    <path d="M 257.5 107  C 258.030406 107 258.53916 107.210733 258.914214 107.585786  C 259.289267 107.96084 259.5 108.469594 259.5 109  C 259.5 109.530406 259.289267 110.03916 258.914214 110.414214  C 258.53916 110.789267 258.030406 111 257.5 111  C 256.969594 111 256.46084 110.789267 256.085786 110.414214  C 255.710733 110.03916 255.5 109.530406 255.5 109  C 255.5 108.469594 255.710733 107.96084 256.085786 107.585786  C 256.46084 107.210733 256.969594 107 257.5 107  z " clip-path="url(#p45930551c6)" style="fill: #ffffff; stroke: #087f87; stroke-width: 0.6; stroke-linejoin: miter" />
   </g>
   <g id="patch_36">
    <path d="M 310 35  Q 314.5 35 318.105573 35  " clip-path="url(#p45930551c6)" style="fill: none; stroke: #087f87; stroke-width: 0.8; stroke-linecap: round" />
    <path d="M 315.505573 33.7  L 318.105573 35  L 315.505573 36.3  z " clip-path="url(#p45930551c6)" style="fill: #087f87; stroke: #087f87; stroke-width: 0.8; stroke-linecap: round" />
   </g>
   <g id="patch_37">
    <path d="M 353.5 42  Q 353.5 45.5 353.5 48.105573  " clip-path="url(#p45930551c6)" style="fill: none; stroke: #087f87; stroke-width: 0.8; stroke-linecap: round" />
    <path d="M 354.8 45.505573  L 353.5 48.105573  L 352.2 45.505573  z " clip-path="url(#p45930551c6)" style="fill: #087f87; stroke: #087f87; stroke-width: 0.8; stroke-linecap: round" />
   </g>
   <g id="patch_38">
    <path d="M 353.5 69  Q 353.5 73 353.5 76.105573  " clip-path="url(#p45930551c6)" style="fill: none; stroke: #40347c; stroke-width: 0.8; stroke-linecap: round" />
    <path d="M 354.8 73.505573  L 353.5 76.105573  L 352.2 73.505573  z " clip-path="url(#p45930551c6)" style="fill: #40347c; stroke: #40347c; stroke-width: 0.8; stroke-linecap: round" />
   </g>
   <g id="patch_39">
    <path d="M 325 80  L 382 80  Q 384 80 384 82  L 384 103  Q 384 105 382 105  L 325 105  Q 323 105 323 103  L 323 82  Q 323 80 325 80  z " clip-path="url(#p45930551c6)" style="fill: #f7f5fb; stroke: #40347c; stroke-width: 0.65; stroke-linejoin: miter" />
   </g>
   <g id="patch_40">
    <path d="M 353.5 106  Q 353.5 110 353.5 113.105573  " clip-path="url(#p45930551c6)" style="fill: none; stroke: #40347c; stroke-width: 0.8; stroke-linecap: round" />
    <path d="M 354.8 110.505573  L 353.5 113.105573  L 352.2 110.505573  z " clip-path="url(#p45930551c6)" style="fill: #40347c; stroke: #40347c; stroke-width: 0.8; stroke-linecap: round" />
   </g>
   <g id="patch_41">
    <path d="M 325 117  L 382 117  Q 384 117 384 119  L 384 136  Q 384 138 382 138  L 325 138  Q 323 138 323 136  L 323 119  Q 323 117 325 117  z " clip-path="url(#p45930551c6)" style="fill: #f7f5fb; stroke: #40347c; stroke-width: 0.65; stroke-linejoin: miter" />
   </g>
   <g id="patch_42">
    <path d="M 164 169  L 286 169  Q 288 169 288 171  L 288 182  Q 288 184 286 184  L 164 184  Q 162 184 162 182  L 162 171  Q 162 169 164 169  z " clip-path="url(#p45930551c6)" style="fill: #fff8ee; stroke: #ce751d; stroke-width: 0.65; stroke-linejoin: miter" />
   </g>
   <g id="patch_43">
    <path d="M 388 60  Q 384.5 60 381.894427 60  " clip-path="url(#p45930551c6)" style="fill: none; stroke: #ce751d; stroke-width: 0.8; stroke-linecap: round" />
    <path d="M 384.494427 61.3  L 381.894427 60  L 384.494427 58.7  z " clip-path="url(#p45930551c6)" style="fill: #ce751d; stroke: #ce751d; stroke-width: 0.8; stroke-linecap: round" />
   </g>
   <g id="patch_44">
    <path d="M 0.9 39  Q 4.95 39 8.273278 39  " clip-path="url(#p45930551c6)" style="fill: none; stroke: #617078; stroke-width: 0.65; stroke-linecap: round" />
    <path d="M 5.673278 37.7  L 8.273278 39  L 5.673278 40.3  z " clip-path="url(#p45930551c6)" style="fill: #617078; stroke: #617078; stroke-width: 0.65; stroke-linecap: round" />
   </g>
   <g id="line2d_1">
    <path d="M 86 60.5  L 100.1 49  " clip-path="url(#p45930551c6)" style="fill: none; stroke: #d8dee2; stroke-width: 1.8; stroke-linecap: round" />
   </g>
   <g id="line2d_2">
    <path d="M 100.1 49  L 117.49 49  " clip-path="url(#p45930551c6)" style="fill: none; stroke: #d8dee2; stroke-width: 1.8; stroke-linecap: round" />
   </g>
   <g id="line2d_3">
    <path d="M 117.49 49  L 133 60.5  " clip-path="url(#p45930551c6)" style="fill: none; stroke: #d8dee2; stroke-width: 1.8; stroke-linecap: round" />
   </g>
   <g id="line2d_4">
    <path d="M 86 60.5  L 100.1 72  " clip-path="url(#p45930551c6)" style="fill: none; stroke: #d8dee2; stroke-width: 0.6; stroke-linecap: round" />
   </g>
   <g id="line2d_5">
    <path d="M 100.1 72  L 117.49 72  " clip-path="url(#p45930551c6)" style="fill: none; stroke: #d8dee2; stroke-width: 0.6; stroke-linecap: round" />
   </g>
   <g id="line2d_6">
    <path d="M 117.49 72  L 133 60.5  " clip-path="url(#p45930551c6)" style="fill: none; stroke: #d8dee2; stroke-width: 0.6; stroke-linecap: round" />
   </g>
   <g id="line2d_7">
    <path d="M 100.1 49  L 117.49 72  " clip-path="url(#p45930551c6)" style="fill: none; stroke: #d8dee2; stroke-width: 0.6; stroke-linecap: round" />
   </g>
   <g id="line2d_8">
    <path d="M 159 80  L 217 80  " clip-path="url(#p45930551c6)" style="fill: none; stroke: #d8dee2; stroke-width: 0.6; stroke-linecap: round" />
   </g>
   <g id="line2d_9">
    <path d="M 165 110  L 211 110  " clip-path="url(#p45930551c6)" style="fill: none; stroke-dasharray: 2.96,1.28; stroke-dashoffset: 0; stroke: #bd3d3d; stroke-width: 0.8" />
   </g>
   <g id="line2d_10">
    <path d="M 185 106  L 191 114  " clip-path="url(#p45930551c6)" style="fill: none; stroke: #bd3d3d; stroke-linecap: round" />
   </g>
   <g id="line2d_11">
    <path d="M 185 114  L 191 106  " clip-path="url(#p45930551c6)" style="fill: none; stroke: #bd3d3d; stroke-linecap: round" />
   </g>
   <g id="line2d_12">
    <path d="M 241 95.5  L 257.5 82  " clip-path="url(#p45930551c6)" style="fill: none; stroke: #087f87; stroke-width: 0.7; stroke-linecap: round" />
   </g>
   <g id="line2d_13">
    <path d="M 257.5 82  L 277.85 82  " clip-path="url(#p45930551c6)" style="fill: none; stroke: #087f87; stroke-width: 0.7; stroke-linecap: round" />
   </g>
   <g id="line2d_14">
    <path d="M 277.85 82  L 296 95.5  " clip-path="url(#p45930551c6)" style="fill: none; stroke: #087f87; stroke-width: 0.7; stroke-linecap: round" />
   </g>
   <g id="line2d_15">
    <path d="M 241 95.5  L 257.5 109  " clip-path="url(#p45930551c6)" style="fill: none; stroke: #087f87; stroke-width: 1.65; stroke-linecap: round" />
   </g>
   <g id="line2d_16">
    <path d="M 257.5 109  L 277.85 109  " clip-path="url(#p45930551c6)" style="fill: none; stroke: #087f87; stroke-width: 1.65; stroke-linecap: round" />
   </g>
   <g id="line2d_17">
    <path d="M 277.85 109  L 296 95.5  " clip-path="url(#p45930551c6)" style="fill: none; stroke: #087f87; stroke-width: 1.65; stroke-linecap: round" />
   </g>
   <g id="line2d_18">
    <path d="M 257.5 82  L 277.85 109  " clip-path="url(#p45930551c6)" style="fill: none; stroke-dasharray: 2.59,1.12; stroke-dashoffset: 0; stroke: #bd3d3d; stroke-width: 0.7" />
   </g>
   <g id="line2d_19">
    <path d="M 265.675 93.5  L 269.675 97.5  " clip-path="url(#p45930551c6)" style="fill: none; stroke: #bd3d3d; stroke-width: 0.9; stroke-linecap: round" />
   </g>
   <g id="line2d_20">
    <path d="M 265.675 97.5  L 269.675 93.5  " clip-path="url(#p45930551c6)" style="fill: none; stroke: #bd3d3d; stroke-width: 0.9; stroke-linecap: round" />
   </g>
   <g id="line2d_21">
    <path d="M 305 145  L 310 145  L 310 35  " clip-path="url(#p45930551c6)" style="fill: none; stroke: #087f87; stroke-width: 0.8; stroke-linecap: round" />
   </g>
   <g id="line2d_22">
    <path d="M 35 151  L 35 176  L 162 176  " clip-path="url(#p45930551c6)" style="fill: none; stroke: #ce751d; stroke-width: 0.8; stroke-linecap: round" />
   </g>
   <g id="line2d_23">
    <path d="M 288 176  L 388 176  L 388 60  " clip-path="url(#p45930551c6)" style="fill: none; stroke: #ce751d; stroke-width: 0.8; stroke-linecap: round" />
   </g>
   <g id="line2d_24">
    <path d="M 353.5 157  L 353.5 199  L 0.9 199  L 0.9 39  " clip-path="url(#p45930551c6)" style="fill: none; stroke: #617078; stroke-width: 0.65; stroke-linecap: round" />
   </g>
   <g id="text_1">
    <text style="font-weight: 700; font-size: 8.5px; font-family: 'Liberation Serif'; text-anchor: middle; fill: #244ea4" x="35" y="16.043984" transform="rotate(-0 35 16.043984)">1  Rollout</text>
   </g>
   <g id="text_2">
    <text style="font-weight: 700; font-size: 8.5px; font-family: 'Liberation Serif'; text-anchor: middle; fill: #244ea4" x="109.5" y="16.043984" transform="rotate(-0 109.5 16.043984)">2  Flow inputs</text>
   </g>
   <g id="text_3">
    <text style="font-weight: 700; font-size: 8.5px; font-family: 'Liberation Serif'; text-anchor: middle; fill: #247345" x="188" y="16.043984" transform="rotate(-0 188 16.043984)">3  Constraints</text>
   </g>
   <g id="text_4">
    <text style="font-weight: 700; font-size: 8.5px; font-family: 'Liberation Serif'; text-anchor: middle; fill: #087f87" x="269" y="16.043984" transform="rotate(-0 269 16.043984)">4  Joint solve</text>
   </g>
   <g id="text_5">
    <text style="font-weight: 700; font-size: 8.5px; font-family: 'Liberation Serif'; text-anchor: middle; fill: #40347c" x="353.5" y="16.043984" transform="rotate(-0 353.5 16.043984)">5  Actor update</text>
   </g>
   <g id="text_6">
    <text style="font-size: 7.5px; font-family: 'Liberation Serif'; text-anchor: middle; fill: #244ea4" x="35" y="35.792969" transform="rotate(-0 35 35.792969)">Current policy</text>
   </g>
   <g id="text_7">
    <text style="font-size: 9px; font-family: 'Liberation Serif'; text-anchor: start; fill: #244ea4" x="31.755859" y="45.164219" transform="rotate(-0 31.755859 45.164219)">π</text>
   </g>
   <g id="text_8">
    <text style="font-size: 7px; font-family: 'Liberation Serif'; text-anchor: start; fill: #244ea4" x="36.299453" y="47.683281" transform="rotate(-0 36.299453 47.683281)">t</text>
   </g>
   <g id="text_9">
    <text style="font-size: 8px; font-family: 'Liberation Serif'; text-anchor: start; fill: #223139" x="11.693125" y="68.92375" transform="rotate(-0 11.693125 68.92375)">s</text>
   </g>
   <g id="text_10">
    <text style="font-size: 7px; font-family: 'Liberation Serif'; text-anchor: start; fill: #223139" x="14.806875" y="70.683281" transform="rotate(-0 14.806875 70.683281)">0</text>
   </g>
   <g id="text_11">
    <text style="font-size: 8px; font-family: 'Liberation Serif'; text-anchor: start; fill: #223139" x="31.693125" y="68.92375" transform="rotate(-0 31.693125 68.92375)">s</text>
   </g>
   <g id="text_12">
    <text style="font-size: 7px; font-family: 'Liberation Serif'; text-anchor: start; fill: #223139" x="34.806875" y="70.683281" transform="rotate(-0 34.806875 70.683281)">1</text>
   </g>
   <g id="text_13">
    <text style="font-size: 8px; font-family: 'Liberation Serif'; text-anchor: start; fill: #223139" x="52.470781" y="68.92375" transform="rotate(-0 52.470781 68.92375)">s</text>
   </g>
   <g id="text_14">
    <text style="font-size: 7px; font-family: 'Liberation Serif'; text-anchor: start; fill: #223139" x="55.584531" y="70.683281" transform="rotate(-0 55.584531 70.683281)">t</text>
   </g>
   <g id="text_15">
    <text style="font-weight: 700; font-size: 8px; font-family: 'Liberation Serif'; text-anchor: middle; fill: #244ea4" x="35" y="90.92375" transform="rotate(-0 35 90.92375)">GAE</text>
   </g>
   <g id="text_16">
    <text style="font-size: 9px; font-family: 'Liberation Serif'; text-anchor: start; fill: #244ea4" x="21.78125" y="104.164219" transform="rotate(-0 21.78125 104.164219)">Â</text>
   </g>
   <g id="text_17">
    <text style="font-size: 7px; font-family: 'Liberation Serif'; text-anchor: start; fill: #244ea4" x="28.280938" y="106.683281" transform="rotate(-0 28.280938 106.683281)">r</text>
   </g>
   <g id="text_18">
    <text style="font-size: 9px; font-family: 'Liberation Serif'; text-anchor: start; fill: #244ea4" x="30.611719" y="104.626172" transform="rotate(-0 30.611719 104.626172)">, Â</text>
   </g>
   <g id="text_19">
    <text style="font-size: 7px; font-family: 'Liberation Serif'; text-anchor: start; fill: #244ea4" x="41.611406" y="106.683281" transform="rotate(-0 41.611406 106.683281)">c</text>
   </g>
   <g id="text_20">
    <text style="font-size: 7px; font-family: 'Liberation Serif'; text-anchor: start; fill: #244ea4" x="44.71875" y="108.683281" transform="rotate(-0 44.71875 108.683281)">k</text>
   </g>
   <g id="text_21">
    <text style="font-size: 7.5px; font-family: 'Liberation Serif'; text-anchor: middle; fill: #223139" x="35" y="129.803516" transform="rotate(-0 35 129.803516)">Episode costs</text>
   </g>
   <g id="text_22">
    <text style="font-size: 10px; font-family: 'Liberation Serif'; text-anchor: start; fill: #ce751d" x="31.303906" y="147.404687" transform="rotate(-0 31.303906 147.404687)">J̄</text>
   </g>
   <g id="text_23">
    <text style="font-size: 7px; font-family: 'Liberation Serif'; text-anchor: start; fill: #ce751d" x="35.196094" y="149.683281" transform="rotate(-0 35.196094 149.683281)">k</text>
   </g>
   <g id="text_24">
    <text style="font-size: 7.5px; font-family: 'Liberation Serif'; text-anchor: middle; fill: #244ea4" x="109.5" y="36.803516" transform="rotate(-0 109.5 36.803516)">k-means cells</text>
   </g>
   <g id="text_25">
    <text style="font-size: 7.5px; font-family: 'Liberation Serif'; text-anchor: middle; fill: #244ea4" x="109.5" y="86.841602" transform="rotate(-0 109.5 86.841602)">Empirical flow F̂</text>
   </g>
   <g id="text_26">
    <text style="font-size: 7.5px; font-family: 'Liberation Serif'; text-anchor: middle; fill: #223139" x="109.5" y="111.792969" transform="rotate(-0 109.5 111.792969)">Advantage A</text>
   </g>
   <g id="text_27">
    <text style="font-size: 7.5px; font-family: 'Liberation Serif'; text-anchor: start; fill: #223139" x="88.167969" y="125.792969" transform="rotate(-0 88.167969 125.792969)">Edge costs C</text>
   </g>
   <g id="text_28">
    <text style="font-size: 7px; font-family: 'Liberation Serif'; text-anchor: start; fill: #223139" x="127.332031" y="127.683281" transform="rotate(-0 127.332031 127.683281)">k</text>
   </g>
   <g id="text_29">
    <text style="font-size: 7.5px; font-family: 'Liberation Serif'; text-anchor: middle; fill: #223139" x="109.5" y="139.8" transform="rotate(-0 109.5 139.8)">Initial mass μ₀</text>
   </g>
   <g id="text_30">
    <text style="font-weight: 700; font-size: 8px; font-family: 'Liberation Serif'; text-anchor: middle; fill: #247345" x="188" y="36.933125" transform="rotate(-0 188 36.933125)">Soft budgets</text>
   </g>
   <g id="text_31">
    <text style="font-size: 9px; font-family: 'Liberation Serif'; text-anchor: start; fill: #247345" x="168.212109" y="52.164219" transform="rotate(-0 168.212109 52.164219)">b</text>
   </g>
   <g id="text_32">
    <text style="font-size: 7px; font-family: 'Liberation Serif'; text-anchor: start; fill: #247345" x="172.712109" y="53.683281" transform="rotate(-0 172.712109 53.683281)">k</text>
   </g>
   <g id="text_33">
    <text style="font-size: 9px; font-family: 'Liberation Serif'; text-anchor: start; fill: #247345" x="176.212109" y="52.164219" transform="rotate(-0 176.212109 52.164219)"> = B</text>
   </g>
   <g id="text_34">
    <text style="font-size: 7px; font-family: 'Liberation Serif'; text-anchor: start; fill: #247345" x="191.790547" y="53.683281" transform="rotate(-0 191.790547 53.683281)">k</text>
   </g>
   <g id="text_35">
    <text style="font-size: 9px; font-family: 'Liberation Serif'; text-anchor: start; fill: #247345" x="195.290547" y="52.164219" transform="rotate(-0 195.290547 52.164219)"> / L</text>
   </g>
   <g id="text_36">
    <text style="font-size: 9px; font-family: 'STIXGeneral'; text-anchor: start; fill: #247345" x="165.564141" y="68.213437" transform="rotate(-0 165.564141 68.213437)">⟨C</text>
   </g>
   <g id="text_37">
    <text style="font-size: 7px; font-family: 'Liberation Serif'; text-anchor: start; fill: #247345" x="175.167422" y="69.683281" transform="rotate(-0 175.167422 69.683281)">k</text>
   </g>
   <g id="text_38">
    <text style="font-size: 9px; font-family: 'STIXGeneral'; text-anchor: start; fill: #247345" x="178.667422" y="68.213437" transform="rotate(-0 178.667422 68.213437)">, F⟩ ≤ b</text>
   </g>
   <g id="text_39">
    <text style="font-size: 7px; font-family: 'Liberation Serif'; text-anchor: start; fill: #247345" x="206.935859" y="69.683281" transform="rotate(-0 206.935859 69.683281)">k</text>
   </g>
   <g id="text_40">
    <text style="font-weight: 700; font-size: 8px; font-family: 'Liberation Serif'; text-anchor: middle; fill: #bd3d3d" x="188" y="93.8925" transform="rotate(-0 188 93.8925)">Hard edges</text>
   </g>
   <g id="text_41">
    <text style="font-size: 9px; font-family: 'Liberation Serif'; text-anchor: start; fill: #bd3d3d" x="175.932344" y="129.164219" transform="rotate(-0 175.932344 129.164219)">F</text>
   </g>
   <g id="text_42">
    <text style="font-size: 7px; font-family: 'Liberation Serif'; text-anchor: start; fill: #bd3d3d" x="180.937187" y="130.683281" transform="rotate(-0 180.937187 130.683281)">H</text>
   </g>
   <g id="text_43">
    <text style="font-size: 9px; font-family: 'Liberation Serif'; text-anchor: start; fill: #bd3d3d" x="185.9925" y="129.164219" transform="rotate(-0 185.9925 129.164219)"> = 0</text>
   </g>
   <g id="text_44">
    <text style="font-size: 7.2px; font-family: 'Liberation Serif'; text-anchor: middle; fill: #617078" x="188" y="145.731375" transform="rotate(-0 188 145.731375)">Excluded; no price</text>
   </g>
   <g id="text_45">
    <text style="font-weight: 700; font-size: 7.5px; font-family: 'Liberation Serif'; text-anchor: middle; fill: #087f87" x="269" y="37.803516" transform="rotate(-0 269 37.803516)">Entropic projection</text>
   </g>
   <g id="text_46">
    <text style="font-size: 8px; font-family: 'Liberation Serif'; text-anchor: middle; fill: #087f87" x="269" y="52.92375" transform="rotate(-0 269 52.92375)">Reward − ε KL</text>
   </g>
   <g id="text_47">
    <text style="font-size: 7.5px; font-family: 'Liberation Serif'; text-anchor: middle; fill: #087f87" x="269" y="67.803516" transform="rotate(-0 269 67.803516)">flow balance</text>
   </g>
   <g id="text_48">
    <text style="font-size: 9px; font-family: 'Liberation Serif'; text-anchor: middle; fill: #087f87" x="269" y="125.138906" transform="rotate(-0 269 125.138906)">Target F*</text>
   </g>
   <g id="text_49">
    <text style="font-size: 8px; font-family: 'Liberation Serif'; text-anchor: middle; fill: #087f87" x="269" y="146.953125" transform="rotate(-0 269 146.953125)">Budget prices λ*</text>
   </g>
   <g id="text_50">
    <text style="font-size: 8px; font-family: 'Liberation Serif'; text-anchor: middle; fill: #087f87" x="353.5" y="36.92375" transform="rotate(-0 353.5 36.92375)">clip c + EMA</text>
   </g>
   <g id="text_51">
    <text style="font-size: 9px; font-family: 'Liberation Serif'; text-anchor: start; fill: #40347c" x="330.271875" y="62.164219" transform="rotate(-0 330.271875 62.164219)">λ</text>
   </g>
   <g id="text_52">
    <text style="font-size: 7px; font-family: 'Liberation Serif'; text-anchor: start; fill: #40347c" x="334.635469" y="63.683281" transform="rotate(-0 334.635469 63.683281)">k</text>
   </g>
   <g id="text_53">
    <text style="font-size: 9px; font-family: 'Liberation Serif'; text-anchor: start; fill: #40347c" x="338.135469" y="62.164219" transform="rotate(-0 338.135469 62.164219)"> = λ̄</text>
   </g>
   <g id="text_54">
    <text style="font-size: 7px; font-family: 'Liberation Serif'; text-anchor: start; fill: #40347c" x="352.074219" y="58.683281" transform="rotate(-0 352.074219 58.683281)">*</text>
   </g>
   <g id="text_55">
    <text style="font-size: 7px; font-family: 'Liberation Serif'; text-anchor: start; fill: #40347c" x="355.574219" y="63.683281" transform="rotate(-0 355.574219 63.683281)">k</text>
   </g>
   <g id="text_56">
    <text style="font-size: 9px; font-family: 'Liberation Serif'; text-anchor: start; fill: #40347c" x="359.074219" y="62.209922" transform="rotate(-0 359.074219 62.209922)"> + β</text>
   </g>
   <g id="text_57">
    <text style="font-size: 7px; font-family: 'Liberation Serif'; text-anchor: start; fill: #40347c" x="373.228125" y="63.683281" transform="rotate(-0 373.228125 63.683281)">k</text>
   </g>
   <g id="text_58">
    <text style="font-weight: 700; font-size: 7.3px; font-family: 'Liberation Serif'; text-anchor: middle; fill: #40347c" x="353.5" y="89.726906" transform="rotate(-0 353.5 89.726906)">Priced advantage</text>
   </g>
   <g id="text_59">
    <text style="font-size: 10px; font-family: 'Liberation Serif'; text-anchor: middle; fill: #40347c" x="353.5" y="100.404687" transform="rotate(-0 353.5 100.404687)">Ã</text>
   </g>
   <g id="text_60">
    <text style="font-weight: 700; font-size: 8px; font-family: 'Liberation Serif'; text-anchor: middle; fill: #40347c" x="353.5" y="128.92375" transform="rotate(-0 353.5 128.92375)">PPO / TRPO</text>
   </g>
   <g id="text_61">
    <text style="font-size: 10px; font-family: 'Liberation Serif'; text-anchor: start; fill: #40347c" x="346.279766" y="153.404687" transform="rotate(-0 346.279766 153.404687)">π</text>
   </g>
   <g id="text_62">
    <text style="font-size: 7px; font-family: 'Liberation Serif'; text-anchor: start; fill: #40347c" x="351.328203" y="155.683281" transform="rotate(-0 351.328203 155.683281)">t+1</text>
   </g>
   <g id="text_63">
    <text style="font-size: 8px; font-family: 'Liberation Serif'; text-anchor: start; fill: #ce751d" x="185.800703" y="177.964375" transform="rotate(-0 185.800703 177.964375)">β</text>
   </g>
   <g id="text_64">
    <text style="font-size: 7px; font-family: 'Liberation Serif'; text-anchor: start; fill: #ce751d" x="189.870703" y="179.683281" transform="rotate(-0 189.870703 179.683281)">k</text>
   </g>
   <g id="text_65">
    <text style="font-size: 8px; font-family: 'Liberation Serif'; text-anchor: start; fill: #ce751d" x="193.370703" y="177.964375" transform="rotate(-0 193.370703 177.964375)"> ← [β</text>
   </g>
   <g id="text_66">
    <text style="font-size: 7px; font-family: 'Liberation Serif'; text-anchor: start; fill: #ce751d" x="212.104453" y="179.683281" transform="rotate(-0 212.104453 179.683281)">k</text>
   </g>
   <g id="text_67">
    <text style="font-size: 8px; font-family: 'Liberation Serif'; text-anchor: start; fill: #ce751d" x="215.604453" y="177.92375" transform="rotate(-0 215.604453 177.92375)"> + η(J̄</text>
   </g>
   <g id="text_68">
    <text style="font-size: 7px; font-family: 'Liberation Serif'; text-anchor: start; fill: #ce751d" x="234.076953" y="179.683281" transform="rotate(-0 234.076953 179.683281)">k</text>
   </g>
   <g id="text_69">
    <text style="font-size: 8px; font-family: 'Liberation Serif'; text-anchor: start; fill: #ce751d" x="237.576953" y="177.92375" transform="rotate(-0 237.576953 177.92375)"> − B</text>
   </g>
   <g id="text_70">
    <text style="font-size: 7px; font-family: 'Liberation Serif'; text-anchor: start; fill: #ce751d" x="251.424453" y="179.683281" transform="rotate(-0 251.424453 179.683281)">k</text>
   </g>
   <g id="text_71">
    <text style="font-size: 8px; font-family: 'Liberation Serif'; text-anchor: start; fill: #ce751d" x="254.924453" y="177.92375" transform="rotate(-0 254.924453 177.92375)">)]</text>
   </g>
   <g id="text_72">
    <text style="font-size: 7px; font-family: 'Liberation Serif'; text-anchor: start; fill: #ce751d" x="260.251953" y="179.683281" transform="rotate(-0 260.251953 179.683281)">+</text>
   </g>
   <g id="text_73">
    <text style="font-size: 7.2px; font-family: 'Liberation Serif'; text-anchor: middle; fill: #617078" x="80" y="195.731375" transform="rotate(-0 80 195.731375)">next rollout</text>
   </g>
   <g id="text_74">
    <text style="font-size: 7.2px; font-family: 'Liberation Serif'; text-anchor: middle; fill: #ce751d" x="225" y="191.731375" transform="rotate(-0 225 191.731375)">observed-cost feedback</text>
   </g>
   <g id="text_75">
    <text style="font-size: 7.5px; font-family: 'Liberation Serif'; text-anchor: middle; fill: #617078" x="200" y="212.831055" transform="rotate(-0 200 212.831055)">F* is a target, not executed; gap corrected by feedback</text>
   </g>
  </g>
 </g>
 <defs>
  <clipPath id="p45930551c6">
   <rect x="0" y="0" width="396" height="217" />
  </clipPath>
 </defs>
</svg>